<svg xmlns="http://www.w3.org/2000/svg" viewBox="0 0 350.76 370.47"><defs><style>.cls-1,.cls-6{fill:#c6ff00;}.cls-2,.cls-4,.cls-7,.cls-8{fill:#fff;}.cls-2{opacity:0.7;}.cls-3,.cls-9{fill:none;}.cls-3{stroke:#fff;}.cls-3,.cls-5,.cls-6,.cls-7,.cls-8,.cls-9{stroke-linecap:round;stroke-linejoin:round;}.cls-4{opacity:0.5;}.cls-10,.cls-5{fill:#263238;}.cls-5,.cls-6,.cls-7,.cls-8,.cls-9{stroke:#263238;}.cls-8{stroke-width:0.5px;}</style></defs><g id="Layer_2" data-name="Layer 2"><g id="Background_Simple" data-name="Background Simple"><path class="cls-1" d="M292.93,107.6C251.74,63.67,189.28,37.83,130.3,58.41,81.23,75.53,40.67,118,18.61,165.21,3.09,198.46-5.51,241.55,3.94,277.77c8.2,31.44,34.4,45.41,64.36,47.66,47.38,3.55,94.93-1.59,142.34-.69,33.65.65,85,13.1,115-6.89,28.35-18.87,26.57-60,23.47-90.16C344.47,182.72,323.21,139.9,292.93,107.6Z"/><path class="cls-2" d="M292.93,107.6C251.74,63.67,189.28,37.83,130.3,58.41,81.23,75.53,40.67,118,18.61,165.21,3.09,198.46-5.51,241.55,3.94,277.77c8.2,31.44,34.4,45.41,64.36,47.66,47.38,3.55,94.93-1.59,142.34-.69,33.65.65,85,13.1,115-6.89,28.35-18.87,26.57-60,23.47-90.16C344.47,182.72,323.21,139.9,292.93,107.6Z"/></g><g id="Arrows"><polygon class="cls-3" points="50.82 218.72 32.77 196 14.72 218.72 21.78 218.72 21.78 252.91 43.76 252.91 43.76 218.72 50.82 218.72"/><polygon class="cls-3" points="271.65 218.72 253.61 196 235.56 218.72 242.62 218.72 242.62 252.91 264.6 252.91 264.6 218.72 271.65 218.72"/><polygon class="cls-3" points="327.38 274.67 309.33 251.95 291.29 274.67 298.35 274.67 298.35 308.87 320.32 308.87 320.32 274.67 327.38 274.67"/><polygon class="cls-3" points="304.52 143.98 286.48 121.27 268.43 143.98 275.49 143.98 275.49 178.18 297.46 178.18 297.46 143.98 304.52 143.98"/><polygon class="cls-3" points="96.71 147.91 78.66 125.2 60.62 147.91 67.67 147.91 67.67 182.11 89.65 182.11 89.65 147.91 96.71 147.91"/><polygon class="cls-3" points="131.7 274.67 113.66 251.95 95.61 274.67 102.67 274.67 102.67 308.87 124.64 308.87 124.64 274.67 131.7 274.67"/></g><g id="Ground"><ellipse class="cls-1" cx="178.49" cy="358.64" rx="102" ry="11.83"/><ellipse class="cls-4" cx="178.49" cy="358.64" rx="102" ry="11.83"/></g><g id="Cloud"><path class="cls-5" d="M243.76,74.72a37.65,37.65,0,0,0-57.94-38.25A50.81,50.81,0,0,0,88,55.8c0,.62,0,1.24,0,1.86a33.07,33.07,0,0,0,4.52,64.57v.35H242.14a24,24,0,0,0,1.62-47.86Z"/><path class="cls-6" d="M243.76,70.22A37.65,37.65,0,0,0,185.82,32,50.81,50.81,0,0,0,88,51.3c0,.62,0,1.24,0,1.86a33.07,33.07,0,0,0,4.52,64.57v.35H242.14a24,24,0,0,0,1.62-47.86Z"/></g><g id="Character"><path class="cls-7" d="M191.89,204.27l-6.29,3.29s-6.9,3-11.39,5.4-26.67,19.48-26.67,19.48l-4.5.29-2.69,1.8s-4.5.9-4.5,1.8.9,1.2,1.8,1.2,3.9-1.5,3.9-1.5-3.05,4.46-1.85,4.46a46.7,46.7,0,0,1,5.17.83,59.36,59.36,0,0,1,6-.79c1.49,0,5.09-8.09,5.09-8.09S181.7,222.25,185,219.85s12.88-8.39,12.88-8.39Z"/><polygon class="cls-6" points="216.08 179.64 187.99 205.17 196.09 214.75 211.67 208.76 217.06 179.99 216.08 179.64"/><polygon class="cls-5" points="191.74 201.76 187.99 205.17 196.09 214.75 200.92 212.89 191.74 201.76"/><path class="cls-6" d="M265.11,339.34s8.92,9.28,9.83,13.83-1.28,8.55-4.92,7.46-6.91-12.37-7.82-14.38-2-4.18-2-4.18S262.93,338.43,265.11,339.34Z"/><path class="cls-7" d="M275,353.66c.66,4.34-1.49,8-5,7-1.26-.38-2.48-2-3.57-4C268.82,352.76,272.64,353,275,353.66Z"/><path class="cls-7" d="M265.2,354c2,2.73,4.54,5.66,6.46,5.14s2.93-4.12,3.28-6c.9,4.54-1.28,8.53-4.92,7.44C268.25,360.1,266.57,357.15,265.2,354Z"/><path class="cls-8" d="M263.29,344.43s4-2.18,4.19-1.45-3.82,2.73-4.37,2.73S262.2,345.53,263.29,344.43Z"/><path class="cls-8" d="M264.2,345.71s4-2.19,4.19-1.46S264.57,347,264,347,263.11,346.8,264.2,345.71Z"/><path class="cls-8" d="M265.11,347s4-2.18,4.19-1.45-3.82,2.73-4.37,2.73S264,348.07,265.11,347Z"/><path class="cls-8" d="M266,348.26s4-2.19,4.19-1.46-3.82,2.73-4.37,2.73S264.93,349.35,266,348.26Z"/><path class="cls-6" d="M193.23,347.68s3.49,4.85,3.8,7.61-2,2.82-4.94,2.5-6.45,1.86-10.6,1.75-8.92-1.92-6.62-3.89,8.3-3.58,9.59-4.71a21.85,21.85,0,0,0,2.18-2.2Z"/><path class="cls-7" d="M174.87,355.65a12.68,12.68,0,0,1,2.64-1.57,8.83,8.83,0,0,1,4.34,5.46h-.36C177.35,359.44,172.57,357.62,174.87,355.65Z"/><path class="cls-8" d="M184.85,350.29s4.27,2.24,3.19,2.67S183.71,350.9,184.85,350.29Z"/><path class="cls-8" d="M183.19,350.74s4.27,2.24,3.19,2.67S182.06,351.35,183.19,350.74Z"/><path class="cls-8" d="M182.23,351.4s4.27,2.24,3.19,2.67S181.1,352,182.23,351.4Z"/><path class="cls-8" d="M180.47,352.21s4.27,2.23,3.19,2.66S179.34,352.81,180.47,352.21Z"/><path class="cls-7" d="M174.39,356.26a13.31,13.31,0,0,0,9.93,1.47,62.47,62.47,0,0,1,9.52-1.31,12.81,12.81,0,0,0,3.21-.54c-.08,2.16-2.24,2.2-5,1.91-2.94-.31-6.45,1.86-10.6,1.75C177.78,359.45,173.58,358,174.39,356.26Z"/><path class="cls-5" d="M237,240.78s-2.1,29.23-.83,36.33,4.4,28.2,4.4,28.2,4.74,3.45,9.47,11.1,15.1,22.93,15.1,22.93.37,2.73-2.91,3.64c0,0-1.64.73-2.55,0s-32-29.48-35.67-35.49-8.55-42.91-8.55-42.91l-4.73-.91-20,38.22,3.48,46.46s.27,1.6-2,2.24-4.1.89-5.46-.28-11.89-52.06-11-53.87,21.06-51.84,21.06-51.84l1.64-4.19s19.11,2.19,27.66.55S236.24,238.05,237,240.78Z"/><line class="cls-3" x1="210.7" y1="263.67" x2="200.32" y2="260.58"/><line class="cls-3" x1="209.6" y1="264.22" x2="195.41" y2="262.58"/><path class="cls-3" d="M233.71,246.47s-7.68,4.89,0,8.16"/><polyline class="cls-3" points="211.97 248.46 210.78 253.19 207.63 256.34 211.57 259.88"/><path class="cls-6" d="M257,192.53c-7-5.69-15.69-12.55-15.69-12.55s-18.43-.41-25.19-.34L206.58,210s-8.73,30.21-8.37,31.48,6.55,4.19,20.39,5.83,19.65-4.19,20-6a15,15,0,0,0-.36-4.91L243,228l15.65-25.74A7.49,7.49,0,0,0,257,192.53Z"/><path class="cls-5" d="M251.46,188.1c-5.36-4.3-10.19-8.12-10.19-8.12s-6.12-.14-12.59-.24c-1.64,3.74-4.47,11.39-2.14,15.17C229.41,199.57,238.8,201,251.46,188.1Z"/><path class="cls-7" d="M243.16,148.81s-5.27,1.46-7.46,4.74-8.55,22.38-8.37,24,8.37,0,8.37,0-5.64,11.83-5.64,13.83,2.55,3.09,5.82,2.36,14.44-19.94,14.44-19.94,3.3,3.85,5.4,2.53c2.39-1.51,1.64-4.55-.18-4.55s5.09-7.46,2.73-12.38S245.35,147.18,243.16,148.81Z"/><path class="cls-5" d="M241.16,143s-10.19,0-10.74,4.92,4.74,7.09,10.56,6.18,11.1-.54,11.83.37-7.1,2.73-5.28,4a5.91,5.91,0,0,0,3.64,1.09s-2.55.73-2.37,2.55,1.77,9.86,3,9.86,3.7-.16,3.7-.16a23.12,23.12,0,0,0,6.18-4.55c2.73-2.91,3.46-9.1,0-12.74s-6.18-7.15-8.91-10.06-5.28-6-10.74-6.74S233.7,139.17,241.16,143Z"/><path class="cls-3" d="M262.41,161.78a12,12,0,0,1,.11,3.23"/><path class="cls-3" d="M243.71,148.74s-11.17,1.09-7,3.22,10.68-1.87,18.81,1.35a10.46,10.46,0,0,1,6.11,5.86"/><path class="cls-3" d="M250.49,157.21s7.62,3.73,8.64,9.16"/><path class="cls-9" d="M235.7,177.57s8.74-.55,11.1-2.55"/><path class="cls-9" d="M233,170.29s6.37,1.82,8.19-2"/><line class="cls-9" x1="240.07" y1="167.56" x2="242.8" y2="168.65"/><path class="cls-7" d="M235,161.92s-5.64.73-5.64,1.64S233,167,233,167"/><path class="cls-10" d="M235.69,160.17c-.26.79-.79,1.32-1.19,1.19s-.5-.88-.23-1.67.79-1.31,1.19-1.18S236,159.38,235.69,160.17Z"/><path class="cls-10" d="M240.48,162.6c-.27.78-.8,1.32-1.19,1.18s-.5-.87-.24-1.66.8-1.32,1.19-1.19S240.74,161.81,240.48,162.6Z"/><path class="cls-5" d="M240.74,157.43s2.75.25,2.5,4Z"/><path class="cls-5" d="M238.24,155.67s-1.51-2-3.51.76Z"/><polygon class="cls-5" points="188.02 89.12 161.68 55.97 135.35 89.12 145.65 89.12 145.65 139.03 177.72 139.03 177.72 89.12 188.02 89.12"/><polygon class="cls-7" points="188.02 86.97 161.68 53.82 135.35 86.97 145.65 86.97 145.65 136.88 177.72 136.88 177.72 86.97 188.02 86.97"/><rect class="cls-7" x="105.94" y="131.24" width="107.11" height="107.11"/><rect class="cls-5" x="110.92" y="136.23" width="97.15" height="97.15"/><path class="cls-7" d="M185.54,168.93l-22.66,23.68-17.64-4.94a6,6,0,0,0-5.13.92l-29.19,21.17v23.62h97.15v-50l-13.9-14.49A6,6,0,0,0,185.54,168.93Z"/><circle class="cls-7" cx="146.95" cy="162.38" r="12.26" transform="translate(-59.08 236.63) rotate(-67.68)"/><path class="cls-7" d="M243.58,197.15,216.8,224.68,176,235.92s-3.64-4.24-6.26-4.26-11.06,3.05-11.06,3.05-1.07,2.61,1,2.63a37.13,37.13,0,0,0,6.31-1l-11.57,2h0a3.78,3.78,0,0,0,3.69,3.19l5.21.05,8.91,1.13,8.43-2.55s39.94-4.36,42.05-4.87,36-29.6,36-29.6,3.83-3.37,2.37-7.28-8.93-6.67-8.93-6.67"/><path class="cls-6" d="M238.74,200l-20.4,20.47,15.18,10.92,26.33-24.79a7.69,7.69,0,0,0,1.35-9.57l-.09-.15a19.41,19.41,0,0,0-7.73-7"/><polygon class="cls-5" points="233.53 231.42 237.09 228.06 221.86 216.96 218.34 220.5 233.53 231.42"/><polygon class="cls-7" points="135.85 236.33 139.7 240.49 143.43 240.91 137.63 235.94 135.85 236.33"/><polygon class="cls-7" points="143.09 236.33 146.94 240.49 150.66 240.91 144.87 235.94 143.09 236.33"/><polygon class="cls-7" points="143.43 240.91 139.08 235.32 141.77 235.32 147.15 240.91 144.87 241.32 143.43 240.91"/><polygon class="cls-7" points="134.33 236.77 136.19 240.29 139.7 240.49 135.85 236.33 134.33 236.77"/></g></g></svg>